<?xml version="1.0" encoding="utf-8"?>
<!-- Generator: Adobe Illustrator 15.0.0, SVG Export Plug-In . SVG Version: 6.00 Build 0)  -->
<!DOCTYPE svg PUBLIC "-//W3C//DTD SVG 1.1//EN" "http://www.w3.org/Graphics/SVG/1.1/DTD/svg11.dtd">
<svg version="1.1" id="Layer_1" xmlns="http://www.w3.org/2000/svg" xmlns:xlink="http://www.w3.org/1999/xlink" x="0px" y="0px"
	 width="300px" height="300px" viewBox="0 0 300 300" enable-background="new 0 0 300 300" xml:space="preserve">
<g>
	<defs>
		<rect id="SVGID_1_" x="72.768" y="2.168" width="165.987" height="297.832"/>
	</defs>
	<clipPath id="SVGID_2_">
		<use xlink:href="#SVGID_1_"  overflow="visible"/>
	</clipPath>
	<path clip-path="url(#SVGID_2_)" fill="#FFFFFF" d="M238.742,6.206c-12.856-2.694-25.655-4.023-38.356-4.023
		c-22.483,0-40.577,4.367-54.271,13.14c-13.718,8.762-23.5,19.887-29.358,33.373c-5.871,13.497-8.802,27.812-8.802,42.927v3.823
		H72.762v51.722h35.193V300h76.522V147.167h38.583V95.444h-38.583V87.81c0-9.89,2.305-17.524,6.887-22.902
		c4.583-5.352,10.992-8.036,19.185-8.036c7.218,0,16.619,1.329,28.194,4.023V6.206z"/>
</g>
</svg>
