<?xml version="1.0" encoding="utf-8"?>
<!-- Generator: Adobe Illustrator 15.0.0, SVG Export Plug-In . SVG Version: 6.00 Build 0)  -->
<!DOCTYPE svg PUBLIC "-//W3C//DTD SVG 1.1//EN" "http://www.w3.org/Graphics/SVG/1.1/DTD/svg11.dtd">
<svg version="1.1" id="Layer_1" xmlns="http://www.w3.org/2000/svg" xmlns:xlink="http://www.w3.org/1999/xlink" x="0px" y="0px"
	 width="300px" height="300px" viewBox="0 0 300 300" enable-background="new 0 0 300 300" xml:space="preserve">
<g>
	<defs>
		<rect id="SVGID_1_" x="13.164" y="-0.826" width="274.783" height="300.826"/>
	</defs>
	<clipPath id="SVGID_2_">
		<use xlink:href="#SVGID_1_"  overflow="visible"/>
	</clipPath>
	<path clip-path="url(#SVGID_2_)" fill="#FFFFFF" d="M140.793,172.369c37.316,0,56.004,12.885,56.004,38.637
		c0,13.175-4.619,22.867-13.795,29.084c-9.193,6.215-23.262,9.33-42.209,9.33h-36.907v-77.051H140.793z M122.993,49.74
		c9.116,0,17.312,0.44,24.629,1.305c7.316,0.883,13.499,2.569,18.56,5.108c5.06,2.536,8.965,6.153,11.715,10.848
		c2.766,4.709,4.132,10.969,4.132,18.778s-1.275,14.087-3.798,18.782c-2.538,4.694-6.306,8.326-11.275,10.847
		c-5.013,2.521-11.166,4.222-18.459,5.09c-7.316,0.88-15.672,1.305-25.07,1.305h-19.54V49.74H122.993z M13.164-0.826V300h173.849
		c16.196,0,30.569-2.066,43.09-6.186c12.504-4.135,23.063-9.953,31.694-17.474c8.6-7.521,15.102-16.532,19.509-27.027
		c4.437-10.485,6.641-22.032,6.641-34.614c0-10.561-1.566-19.888-4.665-27.986c-3.115-8.114-7.416-15.271-12.914-21.502
		c-5.501-6.211-12.125-11.727-19.874-16.483c-7.72-4.771-16.305-9.056-25.708-12.823c4.33-1.58,8.964-4.226,13.887-7.916
		c4.922-3.694,9.48-8.312,13.674-13.875c4.193-5.574,7.674-12.094,10.407-19.551c2.751-7.447,4.148-15.729,4.148-24.843
		c0-9.847-2.035-19.023-6.093-27.562c-4.057-8.553-10.422-15.985-19.098-22.366c-8.691-6.366-19.859-11.394-33.533-15.073
		c-13.675-3.69-30.191-5.545-49.609-5.545H13.164z"/>
</g>
</svg>
