<?xml version="1.0" encoding="utf-8"?>
<!-- Generator: Adobe Illustrator 15.0.0, SVG Export Plug-In . SVG Version: 6.00 Build 0)  -->
<!DOCTYPE svg PUBLIC "-//W3C//DTD SVG 1.1//EN" "http://www.w3.org/Graphics/SVG/1.1/DTD/svg11.dtd">
<svg version="1.1" id="Layer_1" xmlns="http://www.w3.org/2000/svg" xmlns:xlink="http://www.w3.org/1999/xlink" x="0px" y="0px"
	 width="30px" height="30px" viewBox="0 0 30 30" enable-background="new 0 0 30 30" xml:space="preserve">
<g>
	<defs>
		<rect id="SVGID_1_" y="0" width="30" height="30"/>
	</defs>
	<clipPath id="SVGID_2_">
		<use xlink:href="#SVGID_1_"  overflow="visible"/>
	</clipPath>
	<circle clip-path="url(#SVGID_2_)" fill="none" stroke="#FFFFFF" stroke-width="1.551" cx="15" cy="15" r="14.387"/>
	<path clip-path="url(#SVGID_2_)" fill="#FFFFFF" d="M14.372,8.55c1.216,0,2.202-0.985,2.202-2.202c0-1.216-0.986-2.202-2.202-2.202
		S12.17,5.132,12.17,6.348C12.17,7.565,13.156,8.55,14.372,8.55"/>
	<path clip-path="url(#SVGID_2_)" fill="#FFFFFF" d="M14.372,16.722c1.216,0,2.202-0.985,2.202-2.202s-0.986-2.203-2.202-2.203
		s-2.202,0.986-2.202,2.203S13.156,16.722,14.372,16.722"/>
	<path clip-path="url(#SVGID_2_)" fill="#FFFFFF" d="M14.372,24.893c1.216,0,2.202-0.985,2.202-2.203c0-1.216-0.986-2.2-2.202-2.2
		s-2.202,0.984-2.202,2.2C12.17,23.907,13.156,24.893,14.372,24.893"/>
</g>
</svg>
