<?xml version="1.0" encoding="utf-8"?>
<!-- Generator: Adobe Illustrator 15.0.0, SVG Export Plug-In . SVG Version: 6.00 Build 0)  -->
<!DOCTYPE svg PUBLIC "-//W3C//DTD SVG 1.1//EN" "http://www.w3.org/Graphics/SVG/1.1/DTD/svg11.dtd">
<svg version="1.1" id="Layer_1" xmlns="http://www.w3.org/2000/svg" xmlns:xlink="http://www.w3.org/1999/xlink" x="0px" y="0px"
	 width="141.73px" height="141.73px" viewBox="0 0 141.73 141.73" enable-background="new 0 0 141.73 141.73" xml:space="preserve">
<ellipse fill="#9FA1A4" cx="70.713" cy="71.083" rx="70.929" ry="70.863"/>
<rect x="31.936" y="0.221" fill="none" width="110.956" height="131.96"/>
<g>
	<path fill="#FFFFFF" d="M45.364,32.011v76.655c0,0,29.764,0,36.615,0s25.051-5.353,25.694-21.626
		c0.643-16.272-10.492-18.628-13.489-19.485c-2.998-0.856-2.998-0.856-2.998-0.856s9.636-4.068,10.279-16.04
		c0.335-6.204-1.286-11.368-7.496-15.437c-5.856-3.836-13.489-3.212-13.489-3.212H45.364z"/>
	<path fill="#9FA1A4" d="M63.764,45.298v16.7h9.208c0,0,6.394,0.242,8.779-5.459c1.374-3.283-0.004-7.11-2.136-9.048
		c-2.75-2.5-7.224-2.192-7.224-2.192H63.764z"/>
	<path fill="#9FA1A4" d="M63.764,75.06v19.271c0,0,6.852,0,10.064,0c3.211,0,8.243,0,10.171-2.464
		c1.928-2.462,2.583-5.353,2.248-8.779c-0.262-2.671-1.41-4.804-3.6-6.383c-1.623-1.169-4.216-1.646-5.929-1.646
		C75.007,75.06,63.764,75.06,63.764,75.06z"/>
</g>
</svg>
